<svg width="36" height="36" viewBox="0 0 36 36" fill="none" xmlns="http://www.w3.org/2000/svg">
<g clip-path="url(#clip0_1113_150)">
<circle cx="18" cy="18" r="18" fill="#6C2CAA" fill-opacity="0.1"/>
<g clip-path="url(#clip1_1113_150)">
<g clip-path="url(#clip2_1113_150)">
<path d="M26.1 24.3798C26.0644 24.3798 26.0288 24.3756 25.9936 24.367C22.7688 23.583 20.206 23.5777 18.1589 24.3508C18.0565 24.3895 17.9434 24.3895 17.841 24.3508C15.7939 23.5777 13.2311 23.5831 10.0063 24.367C9.87253 24.3997 9.73041 24.3691 9.62187 24.2836C9.51332 24.1983 9.44995 24.0679 9.44995 23.9298V14.0848C9.44995 13.8363 9.6514 13.6348 9.89995 13.6348H11.4144C11.6629 13.6348 11.8644 13.8363 11.8644 14.0848C11.8644 14.3334 11.6629 14.5348 11.4144 14.5348L12.5 13.6715L14 20.5C17.0707 19.8216 15.7712 20.2632 17.841 21C19.9105 20.2633 20.429 19.3215 23.5 20L24 15.5L24.5855 14.5348C24.337 14.5348 24.1355 14.3334 24.1355 14.0848C24.1355 13.8363 24.337 13.6348 24.5855 13.6348H26.1C26.3485 13.6348 26.55 13.8363 26.55 14.0848V23.9298C26.55 24.0679 26.4866 24.1983 26.378 24.2836C26.298 24.3466 26.1998 24.3798 26.1 24.3798Z" fill="white"/>
<path d="M11.4144 22.6709C11.3244 22.6709 11.2352 22.6439 11.159 22.5915C11.0371 22.5075 10.9644 22.3689 10.9644 22.2209V12.7246C10.9644 12.5379 11.0796 12.3707 11.254 12.3041C13.6483 11.3912 15.91 11.3921 18.1689 12.3076C18.3387 12.3764 18.4499 12.5414 18.4499 12.7246V22.2209C18.4499 22.3706 18.3755 22.5105 18.2514 22.5941C18.1272 22.6778 17.9698 22.6943 17.8309 22.638C15.7929 21.8121 13.7464 21.8133 11.5747 22.6414C11.5228 22.6612 11.4684 22.6709 11.4144 22.6709Z" fill="white"/>
<path d="M24.5855 22.6709C24.5313 22.6709 24.477 22.6612 24.4252 22.6414C22.2535 21.8133 20.207 21.8122 18.1689 22.638C18.0301 22.6941 17.8727 22.6778 17.7485 22.5941C17.6244 22.5105 17.5499 22.3706 17.5499 22.2209V12.7246C17.5499 12.5414 17.6611 12.3764 17.8309 12.3076C20.0897 11.3921 22.3517 11.3911 24.7458 12.3041C24.9203 12.3707 25.0355 12.5379 25.0355 12.7246V22.2209C25.0355 22.3689 24.9627 22.5075 24.8408 22.5915C24.7646 22.644 24.6754 22.6709 24.5855 22.6709Z" fill="white"/>
<path d="M26.1 24.3798C26.0644 24.3798 26.0288 24.3756 25.9936 24.367C22.7688 23.583 20.206 23.5777 18.1589 24.3508C18.0565 24.3895 17.9434 24.3895 17.841 24.3508C15.7939 23.5777 13.2311 23.5831 10.0063 24.367C9.87253 24.3997 9.73041 24.3691 9.62187 24.2836C9.51332 24.1983 9.44995 24.0679 9.44995 23.9298V14.0848C9.44995 13.8363 9.6514 13.6348 9.89995 13.6348H11.4144C11.6629 13.6348 11.8644 13.8363 11.8644 14.0848C11.8644 14.3334 11.6629 14.5348 11.4144 14.5348H10.35V23.3633C13.4207 22.6849 15.9302 22.7137 18 23.4505C20.0695 22.7138 22.579 22.6848 25.65 23.3633V14.5348H24.5855C24.337 14.5348 24.1355 14.3334 24.1355 14.0848C24.1355 13.8363 24.337 13.6348 24.5855 13.6348H26.1C26.3485 13.6348 26.55 13.8363 26.55 14.0848V23.9298C26.55 24.0679 26.4866 24.1983 26.378 24.2836C26.298 24.3466 26.1998 24.3798 26.1 24.3798Z" fill="#6421A6"/>
<path d="M11.4144 22.6709C11.3244 22.6709 11.2352 22.6439 11.159 22.5915C11.0371 22.5075 10.9644 22.3689 10.9644 22.2209V12.7246C10.9644 12.5379 11.0796 12.3707 11.254 12.3041C13.6483 11.3912 15.91 11.3921 18.1689 12.3076C18.3387 12.3764 18.4499 12.5414 18.4499 12.7246V22.2209C18.4499 22.3706 18.3755 22.5105 18.2514 22.5941C18.1272 22.6778 17.9698 22.6943 17.8309 22.638C15.7929 21.8121 13.7464 21.8133 11.5747 22.6414C11.5228 22.6612 11.4684 22.6709 11.4144 22.6709ZM11.8644 13.0393V21.5866C13.8178 20.9635 15.689 20.9599 17.5499 21.576V13.033C15.6955 12.3513 13.8297 12.3531 11.8644 13.0393Z" fill="#6421A6"/>
<path d="M24.5855 22.6709C24.5313 22.6709 24.477 22.6612 24.4252 22.6414C22.2535 21.8133 20.207 21.8122 18.1689 22.638C18.0301 22.6941 17.8727 22.6778 17.7485 22.5941C17.6244 22.5105 17.5499 22.3706 17.5499 22.2209V12.7246C17.5499 12.5414 17.6611 12.3764 17.8309 12.3076C20.0897 11.3921 22.3517 11.3911 24.7458 12.3041C24.9203 12.3707 25.0355 12.5379 25.0355 12.7246V22.2209C25.0355 22.3689 24.9627 22.5075 24.8408 22.5915C24.7646 22.6439 24.6754 22.6709 24.5855 22.6709ZM21.2418 21.1165C22.1916 21.1165 23.1532 21.2733 24.1355 21.5866V13.0393C22.1703 12.353 20.3044 12.3512 18.4499 13.033V21.576C19.3751 21.2697 20.3027 21.1165 21.2418 21.1165Z" fill="#6421A6"/>
</g>
</g>
</g>
<defs>
<clipPath id="clip0_1113_150">
<rect width="36" height="36" fill="white"/>
</clipPath>
<clipPath id="clip1_1113_150">
<rect width="18" height="18" fill="white" transform="translate(9 9)"/>
</clipPath>
<clipPath id="clip2_1113_150">
<rect width="18" height="18" fill="white" transform="translate(9 9)"/>
</clipPath>
</defs>
</svg>
