<svg width="541" height="615" viewBox="0 0 541 615" fill="none" xmlns="http://www.w3.org/2000/svg">
<path fill-rule="evenodd" clip-rule="evenodd" d="M246.995 3.13308C231.108 4.10925 217.625 7.8976 201.749 15.8456C197.331 18.0575 187.755 23.4284 184.878 25.3089C184.081 25.8296 183.237 26.3557 183.003 26.4782C182.769 26.6006 182.155 27.0019 181.64 27.3699C181.124 27.7379 179.744 28.6694 178.572 29.4397C173.954 32.4762 170.375 35.0424 164.444 39.5703C161.739 41.6355 161.241 42.0318 159.115 43.8146C158.428 44.3902 157.483 45.1503 157.014 45.5036C156.546 45.8572 155.587 46.6584 154.884 47.2844C154.181 47.9105 153.031 48.9211 152.328 49.5302C151.625 50.1394 150.816 50.8623 150.531 51.1369C150.245 51.4116 149.21 52.3653 148.23 53.2562C145.167 56.0416 138.359 62.7717 135.291 66.0468C134.327 67.0768 126.727 75.709 125.231 77.4742C124.716 78.0825 124.115 78.7722 123.896 79.007C123.677 79.2419 123.308 79.7274 123.076 80.086C122.845 80.4447 122.334 81.0596 121.941 81.4529C121.548 81.846 120.767 82.8111 120.204 83.5974C119.642 84.3836 118.966 85.2651 118.703 85.5561C118.44 85.847 118.096 86.2769 117.938 86.5114C117.781 86.7459 116.999 87.8108 116.202 88.8778C115.404 89.9449 114.466 91.2111 114.117 91.6917C113.769 92.1723 113.326 92.7685 113.132 93.0165C112.542 93.7742 111.987 94.5749 111.495 95.3769C111.237 95.7974 110.886 96.2917 110.715 96.4748C110.545 96.6582 110.405 96.8606 110.405 96.9247C110.405 96.9888 109.811 97.8524 109.084 98.8438C108.358 99.8351 107.457 101.129 107.082 101.719C105.94 103.516 104.809 105.324 104.433 105.953C104.237 106.281 103.91 106.83 103.705 107.173C103.5 107.515 103.036 108.312 102.673 108.943C102.31 109.574 101.8 110.406 101.54 110.793C101.279 111.179 100.927 111.802 100.756 112.178C100.585 112.553 100.235 113.177 99.9777 113.564C99.7208 113.951 99.0408 115.179 98.4666 116.292C97.8925 117.406 97.3119 118.441 97.1764 118.593C97.0409 118.745 96.5946 119.555 96.1846 120.392C95.7746 121.23 95.3172 122.017 95.168 122.141C95.0191 122.265 94.8971 122.512 94.8971 122.69C94.8971 122.868 94.7043 123.319 94.4688 123.692C94.2335 124.066 94.0813 124.371 94.1309 124.371C94.2674 124.371 93.3962 126.036 93.2244 126.103C93.1425 126.135 92.42 127.505 91.6193 129.146C85.3136 142.071 80.1312 155.611 76.8471 167.742C72.6546 183.228 70.6994 197.323 70.6982 212.068C70.6976 219.529 71.1159 224.245 72.3363 230.532C73.4387 236.211 75.6388 243.554 77.4628 247.642C79.9589 253.237 84.5554 261.675 88.0737 267.123C88.4522 267.709 88.762 268.263 88.762 268.355C88.762 268.481 86.2744 271.34 85.6889 271.887C85.4547 272.106 80.5615 277.735 78.3505 280.329C62.5478 298.869 47.4208 320.568 36.8696 339.833C36.5143 340.482 35.6954 341.978 35.05 343.158C33.7368 345.559 28.1319 356.711 27.2432 358.692C26.9274 359.395 26.3844 360.585 26.0366 361.335C19.8813 374.613 13.6546 392.334 9.96535 407.07C6.25144 421.906 4.31446 434.112 3.09649 450.356C2.66652 456.091 2.6655 472.331 3.09495 477.046C3.59598 482.548 4.09786 486.221 5.00534 491.03C8.15432 507.713 15.4399 522.722 25.2771 532.789C30.6464 538.284 36.0468 542.358 43.0048 546.164C47.4283 548.584 49.5785 549.44 67.7154 556.008C69.4963 556.652 72.4104 557.71 74.1913 558.359C75.9722 559.007 80.1133 560.512 83.3939 561.702C86.6744 562.893 89.6525 563.98 90.0117 564.118C90.3709 564.257 93.7197 565.479 97.4533 566.834C101.187 568.19 104.536 569.412 104.895 569.55C105.254 569.688 108.501 570.873 112.109 572.182C115.718 573.49 128.295 578.069 140.058 582.355C151.821 586.642 162.135 590.399 162.979 590.705C167.902 592.489 176.663 595.679 177.976 596.164C178.819 596.477 182.309 597.745 185.73 598.983C189.151 600.222 192.525 601.536 193.228 601.905C200.248 605.586 205.178 607.551 211.542 609.207C219.082 611.167 225.759 612.003 233.873 612C247.235 611.996 259.685 609.569 275.711 603.845C283.482 601.069 293.558 596.409 303.574 590.958C310.541 587.165 320.876 580.753 329.137 575.096C337.318 569.494 350.007 559.766 356.063 554.452C356.344 554.205 357.878 552.868 359.471 551.481C365.946 545.843 369.424 542.544 377.11 534.745C384.419 527.329 391.01 520.107 396.537 513.456C397.707 512.049 398.706 510.859 398.759 510.812C398.866 510.717 403.937 504.439 405.923 501.944C411.344 495.134 419.489 483.839 425.082 475.375C426.517 473.204 427.553 471.796 427.681 471.842C427.947 471.938 430.519 473.602 439.487 479.483C446.487 484.072 447.842 484.958 454.99 489.615C457.005 490.929 458.915 492.091 459.234 492.198C460.022 492.465 461.36 492.441 462.487 492.141C463.766 491.8 464.31 491.509 471.862 487.109C472.471 486.755 474.235 485.736 475.781 484.846C477.328 483.955 480.319 482.229 482.428 481.009C487.756 477.927 494.156 474.227 498.191 471.896C507.998 466.229 517.657 460.651 522.135 458.067C530.804 453.066 530.602 453.195 532.313 451.565C534.962 449.043 536.782 446.096 537.903 442.511C539.184 438.42 538.993 434.913 537.375 432.79C536.95 432.232 535.399 431.147 520.26 420.818C516.745 418.419 512.183 415.304 510.12 413.894C504.752 410.224 502.021 408.359 496.998 404.934C487.115 398.195 483.816 395.942 482.598 395.103C481.557 394.385 472.064 387.892 471.456 387.482C471.349 387.41 471.618 386.53 472.159 385.18C480.555 364.214 485.501 349.552 492.481 324.925C496.582 310.458 500.05 295.485 503.204 278.624C503.999 274.377 505.422 265.55 506.202 260.035C506.57 257.431 506.753 256.082 507.32 251.764C507.901 247.351 507.835 245.523 507.032 243.732C506.613 242.798 505.341 241.361 504.933 241.361C504.841 241.361 504.457 240.907 504.08 240.352C502.946 238.679 501.723 237.845 498.958 236.857C498.068 236.539 493.198 234.767 488.137 232.918C483.075 231.07 478.129 229.267 477.145 228.912C476.16 228.557 473.649 227.644 471.563 226.884C469.478 226.123 466.065 224.878 463.98 224.118C461.894 223.357 459.383 222.444 458.399 222.09C457.414 221.735 451.203 219.471 444.595 217.059C437.987 214.647 431.775 212.383 430.791 212.027C429.807 211.672 426.432 210.446 423.293 209.304C420.153 208.162 416.318 206.767 414.772 206.205C413.225 205.643 411.576 205.037 411.108 204.859C410.639 204.681 403.162 201.954 394.492 198.8C385.822 195.646 373.053 190.989 366.117 188.45L353.506 183.835L351.632 183.819C349.334 183.8 348.993 183.918 345.497 185.934C344.091 186.744 341.1 188.471 338.85 189.772C333.948 192.606 330.613 194.533 326.836 196.714C325.289 197.607 323.296 198.759 322.405 199.273C321.515 199.788 319.214 201.117 317.293 202.227C313.675 204.318 310.755 206.005 305.789 208.877C304.196 209.798 302.355 210.854 301.699 211.223C301.043 211.593 300.062 212.24 299.519 212.661C298.634 213.347 298.541 213.385 298.62 213.026C298.668 212.805 298.905 211.551 299.147 210.237C301.498 197.43 307.41 185.13 316.38 174.387C323.216 166.2 330.688 159.413 339.362 153.511C342.795 151.176 348.261 147.851 350.652 146.645L351.547 146.194L354.657 147.324C356.368 147.946 358.572 148.745 359.556 149.1C363.44 150.503 379.801 156.463 380.603 156.768C381.071 156.946 382.72 157.551 384.267 158.113C393.923 161.622 400.789 164.125 403.609 165.164C406.416 166.198 407.04 166.368 408.296 166.441C409.145 166.491 410.061 166.443 410.511 166.326C410.933 166.216 411.775 166.05 412.383 165.957C414.541 165.625 416.212 164.825 418.256 163.143C419.432 162.175 420.452 161.007 422.566 158.206C423.338 157.184 426.482 153.035 429.553 148.986C432.624 144.938 437.821 138.082 441.101 133.752C444.382 129.421 448.37 124.163 449.963 122.067C459.935 108.945 459.623 109.383 460.799 106.89C461.607 105.178 462.218 103.078 462.488 101.088C462.854 98.3903 462.411 96.7281 459.942 91.5423C454.883 80.9184 447.844 72.9348 438.545 67.2752C435.184 65.2297 434.397 64.781 432.504 63.831C427.894 61.5174 423.206 59.958 417.916 58.9779C416.693 58.7514 415.159 58.3643 414.508 58.1177C413.856 57.8711 411.943 57.1692 410.256 56.558C408.568 55.9466 405.654 54.8841 403.78 54.1967C401.905 53.5092 398.531 52.2807 396.281 51.4665C394.032 50.6524 390.657 49.4233 388.783 48.7352C384.677 47.2276 375.654 43.9449 363.902 39.6823C359.122 37.9484 354.904 36.411 354.53 36.2657C353.949 36.0401 347.622 33.7303 344.985 32.7811C344.517 32.6123 341.794 31.6182 338.936 30.5718C336.077 29.5255 332.281 28.1462 330.5 27.507C328.719 26.8677 326.955 26.2275 326.58 26.0842C326.205 25.9411 324.633 25.3645 323.087 24.8031C321.54 24.2415 318.703 23.2072 316.781 22.5044C314.86 21.8016 311.447 20.5605 309.198 19.7463C306.948 18.9321 303.574 17.7034 301.699 17.016C299.825 16.3284 296.144 14.985 293.519 14.0307C290.895 13.0765 285.101 10.9673 280.644 9.3436C270.399 5.61084 268.357 4.97047 264.122 4.16263C258.749 3.13752 252.77 2.77802 246.995 3.13308ZM259.35 8.82294C262.554 9.24588 265.891 9.94304 268.553 10.7454C269.35 10.9855 272.839 12.2126 276.307 13.472C279.775 14.7316 282.996 15.9003 283.465 16.0695C285.556 16.8236 292.484 19.3496 293.056 19.5664C293.405 19.6984 294.955 20.2656 296.502 20.8268C298.048 21.3881 300.502 22.2819 301.955 22.8129C303.408 23.3442 308.929 25.3497 314.225 27.27C319.521 29.1902 324.16 30.8796 324.534 31.0242C325.343 31.3368 335.028 34.8625 346.69 39.0897C349.314 40.0411 351.73 40.923 352.058 41.0497C352.386 41.1762 356.604 42.7126 361.431 44.4637C366.258 46.215 370.513 47.7653 370.887 47.9091C371.262 48.0527 373.354 48.8176 375.537 49.6085C377.72 50.3995 379.792 51.1546 380.14 51.2866C380.488 51.4186 382.039 51.9867 383.585 52.5491C385.132 53.1116 388.007 54.1582 389.976 54.8749C391.944 55.5917 394.765 56.6141 396.244 57.1468C398.047 57.7963 398.833 58.1522 398.63 58.227C398.463 58.2884 397.291 58.4283 396.026 58.5378C386.205 59.387 374.222 62.7528 362.802 67.87C349.434 73.8591 333.25 83.8706 318.911 95.0205C315.627 97.5743 309.643 102.539 307.153 104.774C297.289 113.632 288.98 122.078 281.832 130.514C257.929 158.722 240.307 190.606 230.963 222.554C228.62 230.566 226.392 240.925 225.433 248.268C225.348 248.924 225.203 250.037 225.112 250.74C223.628 262.184 223.496 274.995 224.769 284.081C225.707 290.776 228.01 299.562 230.132 304.545C231.591 307.969 235.553 315.658 237.932 319.681C238.362 320.408 238.693 321.002 238.669 321.002C238.645 321.002 233.453 319.116 227.132 316.811C220.81 314.506 214.603 312.248 213.338 311.793C212.072 311.338 210.308 310.699 209.418 310.374C208.528 310.049 205.652 309.003 203.027 308.051C200.403 307.098 197.872 306.172 197.403 305.992C196.63 305.695 171.653 296.598 160.423 292.522C148.377 288.15 138.637 284.602 137.246 284.079C136.402 283.761 134.293 282.99 132.559 282.366C130.826 281.741 129.138 281.126 128.81 280.999C128.482 280.872 126.067 279.99 123.442 279.04C120.818 278.089 117.98 277.06 117.137 276.753C116.293 276.445 114.606 275.834 113.387 275.395C112.169 274.956 110.904 274.495 110.576 274.37C110.247 274.245 107.295 273.169 104.014 271.979C100.734 270.789 97.5065 269.613 96.8424 269.364L95.6352 268.912L93.9547 266.349C89.5625 259.651 85.2184 251.823 82.407 245.539C79.9264 239.995 77.6051 231.256 76.6765 223.966C75.2806 213.008 76.0287 198.095 78.7 183.633C81.9593 165.989 87.9473 148.645 97.1001 130.34C115.538 93.464 142.257 61.9653 175.079 38.4106C189.945 27.7418 205.493 19.1206 218.16 14.5225C227.959 10.9649 235.572 9.35861 246.654 8.50915C248.809 8.34407 257.316 8.55417 259.35 8.82294ZM410.085 64.1884C419.212 65.02 426.693 67.6103 435.008 72.8183C440.284 76.1225 443.345 78.6596 446.977 82.7393C450.929 87.1774 454.956 93.8199 457.38 99.8987C457.887 101.171 457.918 101.367 457.838 102.798C457.7 105.277 457.218 106.2 453.538 111.038C452.276 112.696 447.256 119.31 442.382 125.735C437.509 132.16 431.891 139.564 429.898 142.189C425.301 148.242 420.572 154.489 419.503 155.921C417.18 159.03 415.098 160.344 413.275 159.853C412.408 159.62 411.93 159.062 410.852 157.029C405.528 146.993 398.911 139.811 391.612 136.146C388.141 134.404 384.409 133.393 380.146 133.04C373.82 132.515 365.814 134.25 357.468 137.953C344.911 143.526 330.451 153.584 321.297 163.112C312.028 172.76 306.709 180.09 301.951 189.773C297.35 199.137 294.734 208.318 293.497 219.447C293.058 223.389 293.05 233.552 293.482 236.586C294.501 243.733 296.316 249.944 299.147 255.967C301.402 260.766 307.246 269.323 312.815 275.98C317.612 281.714 322.397 286.66 329.477 293.202C333.559 296.973 339.364 301.552 350.78 310.003C352.279 311.113 354.35 312.647 355.381 313.411C359.694 316.609 360.976 317.535 367.395 322.092C377.445 329.225 387.244 336.188 395.259 341.891C399.195 344.692 405.676 349.296 409.659 352.122C413.643 354.948 418.633 358.493 420.75 360C422.866 361.508 424.773 362.835 424.987 362.95C425.649 363.305 426.957 363.193 427.853 362.705C429.229 361.955 430.735 360.341 431.521 358.772C432.308 357.203 437.067 341.476 439.312 333.025C443.77 316.245 447.122 299.894 449.787 281.928C450.343 278.183 450.801 276.869 452.193 275.027C453.442 273.374 453.43 273.382 459.932 269.629C462.135 268.357 466.43 265.878 469.476 264.12C472.522 262.361 476.721 259.936 478.806 258.731C483.662 255.924 489.102 252.781 494.272 249.796C499.367 246.854 499.442 246.818 500.458 246.818C501.502 246.818 502.327 247.334 502.765 248.26C503.289 249.37 503.239 250.125 502.028 259.182C500.291 272.166 496.735 291.43 493.828 303.597C491.547 313.144 489.51 320.924 487.106 329.274C486.295 332.087 485.457 335.004 485.242 335.754C484.623 337.922 483.451 341.853 483.285 342.32C483.201 342.554 482.739 344.012 482.259 345.56C478.573 357.423 472.981 373.022 468.444 384.102C466.953 387.743 466.744 388.458 466.728 389.994C466.707 392.063 467.021 392.472 470.328 394.677C471.218 395.271 473.404 396.754 475.185 397.972C481.578 402.346 486.476 405.693 488.944 407.375C490.326 408.316 492.128 409.546 492.949 410.107C497.428 413.173 505.628 418.769 507.479 420.025C508.651 420.819 510.645 422.177 511.91 423.042C518.711 427.689 530.423 435.686 531.71 436.56C533.701 437.913 534.064 438.484 534.064 440.26C534.064 442.676 533.076 445.042 531.27 446.952C530.283 447.995 529.111 448.764 524.843 451.166C524.431 451.398 523.175 452.121 522.05 452.773C520.925 453.425 518.433 454.867 516.511 455.977C510.531 459.431 501.264 464.787 494.911 468.459C491.56 470.396 487.86 472.533 486.688 473.208C483.544 475.019 479.17 477.544 477.23 478.668C476.293 479.212 474.567 480.209 473.395 480.885C472.224 481.561 470.038 482.824 468.539 483.692C463.653 486.518 464.043 486.334 462.915 486.337C461.921 486.34 461.834 486.302 459.847 484.989C457.929 483.721 445.971 475.893 441.442 472.939C440.317 472.206 437.403 470.298 434.966 468.7C430.651 465.871 430.512 465.795 429.635 465.792C428.514 465.789 427.337 466.354 426.143 467.467C425.605 467.969 424.049 470.123 421.934 473.294C415.769 482.535 410.054 490.434 403.367 498.96C401.354 501.526 394.602 509.781 393.506 511.016C393.231 511.326 391.944 512.808 390.647 514.308C389.349 515.809 388.008 517.344 387.667 517.719C387.326 518.094 386.25 519.284 385.277 520.362C380.23 525.955 371.327 535.075 366.203 539.901C363.835 542.131 359.424 546.064 355.942 549.048C331.859 569.693 304.491 586.973 280.908 596.424C278.037 597.575 277.205 597.884 273.58 599.149C269.282 600.649 262.162 602.696 258.754 603.412C256.716 603.841 255.252 604.135 254.494 604.268C254.025 604.351 252.99 604.534 252.193 604.674C245.811 605.799 237.598 606.336 232.032 605.994C223.197 605.451 216.297 604.173 208.907 601.712C198.623 598.286 188.562 591.959 181.212 584.296C176.04 578.904 171.012 570.812 167.675 562.511C164.045 553.483 161.974 544.152 160.903 532.005C160.532 527.802 160.478 512.642 160.817 507.913C161.417 499.537 162.19 492.001 162.889 487.704C164.006 480.835 164.406 478.57 165.134 474.999C165.954 470.971 166.425 468.886 167.503 464.511C171.826 446.957 178.992 427.582 187.497 410.45C191.729 401.924 196.039 394.159 201.553 385.125C212.152 367.759 227.133 347.735 241.276 332.032C242.599 330.562 243.985 328.927 244.355 328.398C245.683 326.502 246.469 323.565 246.092 321.912C246.003 321.521 245.087 319.833 244.058 318.16C238.764 309.562 234.926 301.913 232.995 296.115C229.806 286.543 228.507 278.24 228.51 267.453C228.514 253.595 230.348 240.328 234.355 225.16C236.091 218.589 239.366 208.966 242.307 201.796C244.902 195.468 250.062 184.582 253.14 178.944C258.192 169.687 263.331 161.37 268.717 153.729C269.798 152.195 270.798 150.772 270.939 150.567C271.079 150.362 271.393 149.929 271.635 149.604C271.877 149.28 272.641 148.247 273.333 147.309C275.733 144.052 281.387 136.951 283.992 133.921C300.116 115.168 318.372 99.3436 339.021 86.2232C345.884 81.862 351.461 78.6994 357.426 75.7835C362.515 73.296 363.756 72.7442 367.992 71.0816C378.014 67.1483 386.551 65.1197 396.707 64.2585C401.711 63.8342 405.953 63.8119 410.085 64.1884ZM380.006 139.223C388.808 140.584 395.994 145.579 402.433 154.813C404.124 157.239 405.82 159.99 405.698 160.112C405.655 160.155 404.593 159.814 403.337 159.356C402.081 158.898 399.229 157.859 397 157.047C394.771 156.236 392.662 155.463 392.313 155.329C391.733 155.107 384.652 152.53 380.347 150.974C379.363 150.619 377.407 149.909 376.002 149.397C374.596 148.885 372.027 147.95 370.293 147.32C368.559 146.691 365.913 145.727 364.413 145.178C362.913 144.629 360.978 143.925 360.113 143.613C359.247 143.301 358.538 142.998 358.536 142.94C358.533 142.805 361.192 141.791 363.354 141.101C366.919 139.965 370.7 139.187 373.701 138.974C375.05 138.878 378.711 139.023 380.006 139.223ZM354.908 190.095C359.059 191.588 369.209 195.278 370.002 195.582C370.358 195.719 373.733 196.95 377.501 198.318C381.269 199.686 385.924 201.38 387.846 202.083C389.767 202.785 392.605 203.819 394.151 204.38C395.698 204.941 397.346 205.546 397.815 205.723C398.284 205.901 401.658 207.131 405.313 208.456C408.969 209.782 413.493 211.428 415.368 212.116C418.372 213.217 420.139 213.861 426.616 216.211C438.708 220.599 443.461 222.33 444.169 222.603C444.637 222.784 450.849 225.048 457.973 227.633C465.096 230.218 471.308 232.479 471.776 232.657C472.245 232.835 473.913 233.447 475.483 234.016C482.579 236.589 484.085 237.136 484.643 237.346C484.971 237.469 488.039 238.586 491.46 239.827C494.881 241.068 497.742 242.14 497.817 242.209C497.892 242.278 496.32 243.279 494.324 244.433C487.786 248.212 482.221 251.431 479.445 253.039C477.946 253.908 475.722 255.194 474.503 255.896C473.285 256.599 469.795 258.615 466.749 260.375C463.703 262.136 459.677 264.457 457.802 265.533C455.928 266.61 453.786 267.955 453.044 268.524L451.694 269.558L450.232 269.032C447.752 268.14 440.38 265.457 429.257 261.398C423.399 259.261 417.456 257.099 416.05 256.594C414.644 256.09 413.11 255.531 412.641 255.352C412.173 255.173 410.524 254.568 408.977 254.007C407.431 253.446 404.593 252.412 402.672 251.709C400.75 251.006 397.338 249.765 395.088 248.951C392.839 248.136 389.465 246.907 387.59 246.219C385.715 245.531 382.379 244.315 380.177 243.517C377.974 242.719 373.833 241.211 370.974 240.166C368.115 239.122 365.278 238.089 364.669 237.872C364.06 237.655 356.391 234.863 347.627 231.668C338.863 228.472 330.082 225.273 328.114 224.558C324.053 223.083 319.561 221.444 317.548 220.704C316.798 220.428 313.592 219.259 310.422 218.106C307.253 216.953 304.646 215.952 304.628 215.882C304.611 215.811 306.59 214.601 309.027 213.192C311.464 211.783 314.992 209.744 316.866 208.66C318.741 207.576 321.233 206.136 322.405 205.46C323.577 204.784 325.264 203.81 326.154 203.295C327.045 202.781 329.345 201.451 331.267 200.341C333.188 199.232 336.371 197.392 338.339 196.255C351.417 188.694 350.818 189.024 351.499 189.012C351.708 189.008 353.241 189.496 354.908 190.095ZM307.238 222.642C319.757 227.207 322.725 228.288 326.069 229.503C327.288 229.945 329.857 230.879 331.778 231.579C333.7 232.279 339.183 234.271 343.963 236.006C348.743 237.74 352.96 239.278 353.334 239.423C353.709 239.567 355.801 240.333 357.984 241.124C360.167 241.915 362.239 242.672 362.587 242.805C362.935 242.939 364.946 243.674 367.055 244.438C369.164 245.202 372.998 246.596 375.575 247.536C378.153 248.476 381.067 249.535 382.051 249.889C385.586 251.163 402.264 257.237 403.098 257.555C403.567 257.734 405.254 258.351 406.847 258.926C408.441 259.502 410.128 260.119 410.596 260.296C411.065 260.474 413.136 261.229 415.198 261.973C417.26 262.718 422.666 264.685 427.212 266.344C431.758 268.003 436.513 269.732 437.778 270.185C441.802 271.625 448.07 273.944 448.147 274.021C448.188 274.061 447.871 274.814 447.444 275.692C446.169 278.315 445.835 279.619 445.014 285.189C441.774 307.17 436.784 329.088 430.164 350.42C429.553 352.39 428.873 354.596 428.653 355.321C428.434 356.047 428.192 356.752 428.116 356.887C427.971 357.147 428.562 357.562 385.055 326.616C383.286 325.358 381.561 324.13 381.221 323.889C380.881 323.647 379.683 322.798 378.558 322.002C370.662 316.413 364.971 312.358 363.22 311.073C362.095 310.248 360.523 309.096 359.727 308.514C355.535 305.453 342.496 295.664 340.725 294.248C331.714 287.047 321.715 277.164 315.169 268.988C310.542 263.209 305.789 256.188 303.763 252.138C302.082 248.78 300.206 243.636 299.319 239.949C298.256 235.534 297.861 232.523 297.743 227.943C297.663 224.829 297.702 223.735 297.961 221.756C298.227 219.731 298.318 219.369 298.539 219.459C298.684 219.517 302.598 220.95 307.238 222.642ZM95.0009 274.384C95.9279 274.718 97.3767 275.243 98.2202 275.55C99.0638 275.857 102.834 277.229 106.599 278.598C110.364 279.967 113.738 281.199 114.098 281.336C114.457 281.472 116.054 282.055 117.648 282.631C119.241 283.207 120.928 283.823 121.397 284.001C121.866 284.179 128.077 286.44 135.201 289.026C142.324 291.612 148.536 293.875 149.005 294.054C149.473 294.234 150.83 294.729 152.019 295.154C153.209 295.58 154.474 296.039 154.831 296.174C155.188 296.31 156.746 296.881 158.293 297.443C159.839 298.005 163.674 299.4 166.813 300.542C169.953 301.684 175.475 303.688 179.084 304.997C182.692 306.305 186.028 307.523 186.497 307.704C187.2 307.974 203.027 313.746 206.862 315.13C207.471 315.35 209.426 316.06 211.207 316.707C212.988 317.354 217.129 318.859 220.41 320.051C223.69 321.243 226.95 322.433 227.653 322.696C228.356 322.958 231.442 324.085 234.511 325.2C237.58 326.315 240.091 327.293 240.092 327.373C240.093 327.453 239.455 328.221 238.674 329.078C237.894 329.936 235.878 332.249 234.195 334.219C213.41 358.534 197.054 382.89 184.212 408.653C180.008 417.088 176.793 424.377 173.343 433.299C164.182 456.993 158.617 480.661 156.68 504.161C156.083 511.393 156.005 513.533 156.005 522.494C156.006 531.875 156.114 534.187 156.844 540.401C158.569 555.095 162.639 567.733 169.119 578.52C171.248 582.065 174.559 586.521 176.929 589.034C177.666 589.815 178.19 590.454 178.093 590.454C177.937 590.454 172.684 588.573 170.477 587.727C170.009 587.547 167.516 586.637 164.939 585.704C157.907 583.16 151.721 580.909 141.762 577.268C139.841 576.566 136.85 575.481 135.116 574.858C133.382 574.235 131.58 573.577 131.111 573.397C130.138 573.022 123.296 570.528 118.5 568.799C116.719 568.158 114.227 567.252 112.961 566.788C111.696 566.323 109.242 565.43 107.508 564.803C105.774 564.175 104.087 563.559 103.759 563.434C103.431 563.308 98.8082 561.622 93.4862 559.687C88.1644 557.752 83.5247 556.059 83.1759 555.925C82.8272 555.791 81.123 555.17 79.389 554.546C77.6552 553.921 75.9681 553.307 75.6398 553.182C75.3118 553.056 72.8961 552.179 70.2717 551.232C67.6472 550.285 65.1165 549.364 64.6479 549.185C64.1792 549.006 61.6869 548.096 59.1093 547.161C52.3255 544.702 51.1581 544.231 47.9435 542.646C35.1124 536.323 25.7028 527.409 19.1325 515.353C13.0763 504.24 9.71109 491.874 8.38285 475.852C7.98203 471.016 7.98527 457.931 8.38899 451.806C9.14326 440.36 10.4836 430.062 12.518 420.086C19.731 384.714 34.3133 350.964 56.809 317.576C66.6876 302.915 79.3897 286.704 90.432 274.666L92.0288 272.925L92.6721 273.351C93.0259 273.585 94.0738 274.05 95.0009 274.384ZM278.738 359.291C277.613 359.704 276.708 360.467 273.751 363.494C262.196 375.321 252.998 386.801 245.648 398.569C238.145 410.582 233.008 421.645 229.257 433.872C226.395 443.201 224.818 451.655 223.702 463.658C223.395 466.954 223.396 481.14 223.703 484.038C224.478 491.354 225.292 495.796 226.772 500.78C229.374 509.543 234.204 517.346 240.065 522.255C254.271 534.154 275.592 534.037 302.51 521.914C328.528 510.197 351.604 492.527 371.245 469.286C378.716 460.445 388.634 447.178 389.985 444.217C390.984 442.027 391.162 440.193 390.509 438.825C390.196 438.17 390.239 438.202 376.598 428.498C370.028 423.824 360.271 416.882 349.672 409.341C346.157 406.84 338.335 401.277 332.289 396.978C326.244 392.68 318.958 387.499 316.1 385.465C313.241 383.431 308.333 379.942 305.193 377.71C300.625 374.464 293.49 369.185 289.63 366.195C288.119 365.024 284.627 362.219 283.018 360.884C280.679 358.943 280.185 358.759 278.738 359.291ZM279.215 366.164C281.801 368.336 286.588 372.103 290.878 375.343C295.443 378.79 296.885 379.829 313.458 391.604C318.52 395.201 324.003 399.102 325.643 400.275C327.283 401.448 330.696 403.875 333.227 405.669C337.835 408.935 351.979 418.994 366.203 429.121C370.373 432.091 376.571 436.5 379.974 438.92C383.781 441.627 386.13 443.404 386.079 443.536C385.907 443.985 382.547 448.665 378.977 453.426C367.622 468.573 356.886 480.058 344.304 490.519C326.685 505.168 304.532 517.364 286.276 522.466C266.145 528.092 249.589 524.681 239.73 512.878C233.804 505.783 230.35 497.001 228.756 484.976C227.734 477.259 227.768 465.262 228.839 455.899C229.072 453.869 229.652 449.78 229.869 448.651C230.423 445.755 230.934 443.228 231.144 442.341C232.081 438.377 232.442 437.002 233.36 433.899C239.316 413.752 252.072 392.593 269.904 373.279C273.115 369.801 277.638 365.172 277.826 365.172C277.94 365.172 278.565 365.619 279.215 366.164Z" fill="black" stroke="black" stroke-width="4.08938"/>
</svg>
